OpenSim_Sub10_CSBaseline_LCS.mot
version=1
nRows=64
nColumns=11
inDegrees=no
endheader
time	Bot_Shank	2nd_Bot_Shank	2nd_Top_Shank	Top_Shank	Bot_Thigh	Med_Thigh	Top_Thigh	BNOx	BNOy	BNOZ
22.77000000	10338.26119578	10399.99947485	10826.01458609	10870.18122572	13124.89771738	14199.09800883	14571.58067104	231.13308046	-74.45347290	104.74988077
22.78000000	10341.28221625	10399.99516900	10825.89066100	10872.24422576	13140.44067385	14208.76126646	14588.95828363	230.51488160	-75.17986070	105.65184464
22.79000000	10344.86035917	10399.99242794	10825.34189432	10874.85138998	13150.50713108	14216.23415107	14608.57696990	229.82060758	-75.88715642	107.06512270
22.80000000	10348.72901332	10399.99103090	10824.46211230	10878.12881563	13156.19356364	14221.80789777	14629.55799812	229.06886151	-76.56975119	108.93274519
22.81000000	10352.62156751	10399.99075710	10823.34514120	10882.20259996	13158.59644609	14225.77374167	14651.02263656	228.27824645	-77.22203612	111.19774233
22.82000000	10356.27141050	10399.99138577	10822.08480728	10887.19884020	13158.81225299	14228.42291789	14672.09215349	227.46736549	-77.83840232	113.80314436
22.83000000	10359.41193108	10399.99269614	10820.77493679	10893.24363361	13157.93745892	14230.04666155	14691.88781720	226.65482172	-78.41324092	116.69198151
22.84000000	10361.77651804	10399.99446744	10819.50935599	10900.46307742	13157.06853842	14230.93620775	14709.53089594	225.85921820	-78.94094303	119.80728401
22.85000000	10363.09856017	10399.99647890	10818.38189114	10908.98326888	13157.30196608	14231.38279163	14724.14265800	225.09915804	-79.41589977	123.09208209
22.86000000	10363.11144624	10399.99850973	10817.48636849	10918.93030524	13159.73421645	14231.67764828	14734.84437165	224.39324430	-79.83250225	126.48940599
22.87000000	10361.54943096	10400.00033941	10816.91635836	10930.42931587	13165.45869177	14232.11130964	14740.75992063	223.76004233	-80.18516011	129.94233364
22.88000000	10358.33034319	10400.00179657	10816.71117118	10943.40024199	13174.91746185	14232.82523261	14741.56766662	223.21011769	-80.47220881	133.40406013
22.89000000	10353.78159000	10400.00281955	10816.78905647	10957.30522294	13187.09938782	14233.62826796	14738.18308482	222.73618736	-80.70074286	136.85035313
22.90000000	10348.28599708	10400.00336155	10817.05188338	10971.54445446	13200.79670214	14234.28426269	14731.68904003	222.32855328	-80.87904192	140.26003454
22.91000000	10342.22639012	10400.00337576	10817.40152109	10985.51813230	13214.80163727	14234.55706382	14723.16839703	221.97751739	-81.01538563	143.61192625
22.92000000	10335.98559481	10400.00281538	10817.73983875	10998.62645221	13227.90642567	14234.21051833	14713.70402060	221.67338164	-81.11805366	146.88485018
22.93000000	10329.94643683	10400.00163359	10817.96870553	11010.26960994	13238.90329982	14233.00847322	14704.37877552	221.40644797	-81.19532566	150.05762821
22.94000000	10324.49167498	10399.99978365	10817.99002161	11019.84794530	13246.58482206	14230.71488566	14696.27533402	221.16701946	-81.25547997	153.10907859
22.95000000	10319.91530481	10399.99728804	10817.74683958	11026.95299788	13250.18129934	14227.23989280	14690.22084248	220.94690439	-81.30503474	156.01316036
22.96000000	10316.24757395	10399.99437499	10817.30449080	11031.74443127	13250.22373725	14222.92798584	14686.28318705	220.74238356	-81.34527801	158.72939417
22.97000000	10313.46996709	10399.99131076	10816.75091414	11034.48694645	13247.48362055	14218.20396130	14684.38987832	220.55056468	-81.37653085	161.21463121
22.98000000	10311.56396895	10399.98836164	10816.17404842	11035.44524441	13242.73243396	14213.49261575	14684.46842688	220.36855543	-81.39911433	163.42572268
22.99000000	10310.51106421	10399.98579388	10815.66183251	11034.88402613	13236.74166222	14209.21874572	14686.44634335	220.19346352	-81.41334951	165.31951976
23	10310.29273758	10399.98387376	10815.30220523	11033.06799260	13230.28279008	14205.80714777	14690.25113832	220.02239665	-81.41955747	166.85287366
23.01000000	10310.89047376	10399.98286753	10815.18310543	11030.26184479	13224.12730228	14203.68261843	14695.81032240	219.85246251	-81.41805927	167.98263557
23.02000000	10312.28575744	10399.98304148	10815.39247196	11026.73028370	13219.04668355	14203.26995427	14703.05140617	219.68076880	-81.40917598	168.66565669
23.03000000	10314.46007334	10399.98466187	10816.01824367	11022.73801030	13215.81241864	14204.99395181	14711.90190025	219.50442323	-81.39322867	168.85878821
23.04000000	10317.39490614	10399.98799497	10817.14835939	11018.54972558	13215.19599228	14209.27940762	14722.28931523	219.32053348	-81.37053841	168.51888132
23.05000000	10321.07174055	10399.99330704	10818.87075797	11014.43013053	13217.96888921	14216.55111824	14734.14116172	219.12620727	-81.34142627	167.60278723
23.06000000	10325.47201822	10400.00086395	10821.27332806	11010.64384596	13224.90226112	14227.23367509	14747.38492377	218.91855326	-81.30621371	166.06745008
23.07000000	10330.52005975	10400.01039630	10824.37734103	11007.34913013	13236.32529492	14241.47947637	14761.91286972	218.69598075	-81.26574754	163.99315898
23.08000000	10335.97045824	10400.02004416	10828.00612409	11004.38819925	13251.25393937	14258.63213512	14777.51262919	218.46076367	-81.22243554	161.82670584
23.09000000	10341.54642680	10400.02765358	10831.94640765	11001.54483827	13268.46134567	14277.88573243	14793.95248567	218.21589044	-81.17897407	160.08264331
23.10000000	10346.97117854	10400.03107059	10835.98492210	10998.60283212	13286.72066504	14298.43434942	14811.00072268	217.96434949	-81.13805953	159.27552400
23.11000000	10351.96792659	10400.02814122	10839.90839783	10995.34596575	13304.80504871	14319.47206718	14828.42562374	217.70912923	-81.10238828	159.91990057
23.12000000	10356.25988405	10400.01671149	10843.50356524	10991.55802407	13321.48764788	14340.19296682	14845.99547235	217.45321811	-81.07465672	162.53032565
23.13000000	10359.57081943	10399.99462451	10846.55753257	10987.02344175	13335.54370876	14359.79193254	14863.47869259	217.19959424	-81.05755776	167.61857932
23.14000000	10361.74224689	10399.95909873	10848.93751151	10981.66439081	13346.19261474	14377.63410264	14880.67350673	216.94905445	-81.05305279	175.10866375
23.15000000	10362.87838664	10399.90595898	10850.68943512	10975.71035366	13353.64467787	14393.46447482	14897.44462078	216.69752869	-81.06147104	183.61317080
23.16000000	10363.11900472	10399.83084155	10851.88341864	10969.43239379	13358.24428937	14407.07944425	14913.66573644	216.44028841	-81.08292087	191.56724996
23.17000000	10362.60386721	10399.72938270	10852.58957730	10963.10157469	13360.33584046	14418.27540611	14929.21055542	216.17260507	-81.11751069	197.40605072
23.18000000	10361.47274015	10399.59721871	10852.87802634	10956.98895987	13360.26372236	14426.84875559	14943.95277940	215.88975011	-81.16534885	199.56472255
23.19000000	10359.86538960	10399.42998585	10852.81888099	10951.36561281	13358.37232627	14432.59588784	14957.76611009	215.58699499	-81.22654374	196.47841494
23.20000000	10357.92158163	10399.22332040	10852.48225649	10946.50259701	13355.00604342	14435.31319805	14970.52424918	215.25961115	-81.30120375	186.58227738
23.21000000	10355.78106111	10398.97286669	10851.93826507	10942.67086843	13350.50925155	14434.79722382	14982.10091502	214.90287057	-81.38943633	168.31208019
23.22000000	10353.55547245	10398.68498007	10851.25304261	10939.99867896	13345.20847228	14431.03351434	14992.39191273	214.51274121	-81.49012925	140.92747236
23.23000000	10351.27296330	10398.39784213	10850.48090976	10938.19025475	13339.37717003	14424.56924091	15001.35867536	214.08725901	-81.59854619	106.13614611
23.24000000	10348.94624405	10398.15551865	10849.67400270	10936.87142614	13333.27899979	14416.05541015	15008.97476953	213.62484229	-81.70928076	66.09839921
23.25000000	10346.58802510	10398.00207539	10848.88445762	10935.66802345	13327.17761654	14406.14302867	15015.21376186	213.12390935	-81.81692658	22.97452940
23.26000000	10344.21101683	10397.98157814	10848.16441071	10934.20587701	13321.33667526	14395.48310308	15020.04921898	212.58287848	-81.91607727	-21.07516557
23.27000000	10341.82792964	10398.13809267	10847.56599816	10932.11081715	13316.01983095	14384.72663999	15023.45470751	212.00016800	-82.00132645	-63.89038793
23.28000000	10339.45147392	10398.51568477	10847.14135617	10929.00867420	13311.49073858	14374.52464600	15025.40379408	211.37419620	-82.06726774	-103.31083993
23.29000000	10337.09436005	10399.15842020	10846.94262091	10924.52527849	13308.01305313	14365.52812774	15025.87004530	210.70338138	-82.10849476	-137.17622382
23.30000000	10334.76930222	10400.11030705	10847.02186637	10918.28659394	13305.85029755	14358.38789787	15024.82706261	209.98614291	-82.11960169	-163.32681339
23.31000000	10332.49403980	10401.33880070	10847.34860957	10910.09587598	13305.09076150	14353.49742530	15022.29462812	209.22229350	-82.09593614	-180.36131100
23.32000000	10330.30124383	10402.58389056	10847.64706081	10900.28317755	13305.30205288	14350.48551690	15018.42974359	208.41578612	-82.03508434	-189.13198642
23.33000000	10328.22634598	10403.54351107	10847.59607695	10889.27594833	13305.95551353	14348.83960529	15013.41478060	207.57133921	-81.93504643	-190.90775932
23.34000000	10326.30477794	10403.91559668	10846.87451483	10877.50163803	13306.52248530	14348.04712309	15007.43211070	206.69367120	-81.79382257	-186.95754938
23.35000000	10324.57197137	10403.39808183	10845.16123131	10865.38769634	13306.47431004	14347.59550294	15000.66410546	205.78750051	-81.60941287	-178.55027629
23.36000000	10323.06335797	10401.68890099	10842.13508325	10853.36157295	13305.28232959	14346.97217745	14993.29313644	204.85754559	-81.37981749	-166.95485972
23.37000000	10321.81436940	10398.48598858	10837.47492749	10841.85071755	13302.41788580	14345.66457925	14985.50157522	203.90852486	-81.10303655	-153.44021935
23.38000000	10320.86043735	10393.48727907	10830.85962090	10831.28257985	13297.35232051	14343.16014097	14977.47179335	202.94515675	-80.77707021	-139.27527485
23.39000000	10320.23699350	10386.39070690	10821.96802032	10822.08460954	13289.55697558	14338.94629524	14969.38616240	201.97215970	-80.39991860	-125.72894592
23.40000000	10319.97919902	10376.89495712	10810.48011438	10814.68281851	13278.50474328	14332.51191530	14961.42641319	200.99421551	-79.96956214	-114.06794987
